<?xml version="1.0" encoding="UTF-8"?>
<svg viewBox="0 0 700 150" xmlns="http://www.w3.org/2000/svg">
 <g transform="translate(0 -902.36)">
  <path d="m371.5 915.57a3.0299 3.0299 0 0 1 3.0299 3.0299v10.592a3.0299 3.0299 0 0 1 -3.0299 3.0299 3.0299 3.0299 0 0 1 -3.0299 -3.0299v-10.592a3.0299 3.0299 0 0 1 3.0299 -3.0299"/>
  <path d="m451.85 909.35a3.8604 3.8604 0 0 1 3.8604 3.8604v13.496a3.8604 3.8604 0 0 1 -3.8604 3.8604 3.8604 3.8604 0 0 1 -3.8604 -3.8604v-13.496a3.8604 3.8604 0 0 1 3.8604 -3.8604"/>
  <path d="m98.473 954.4 527.37-1.5152v54.201h-28.715l-17.411 24.497h-11.275l-7.0306-13.581h-25.781l-7.5663 13.581h-18.005l-10.959-13.581h-24.352l-5.0663 13.581h-368.94l-15.403 3.5935h-13.132z" stroke="#fff"/>
  <path d="m146.73351,998.6756h99.64813a.93058,.93058 0 0,1 .93058.93058 .93058,.93058 0 0,1 -.93058.93058h-99.64813a.93058,.93058 0 0,1 -.93058-.93058 .93058,.93058 0 0,1 .93058-.93058" fill="#fff"/>
  <path d="m271.06 912.2h65c7.2984 0.84025 12.285 2.3741 14.821 4.6429v21.518h-88.75v-21.786c0-3.4416 8.1369-4.375 8.9286-4.375z"/>
  <path d="m466.59 909.35a3.8604 3.8604 0 0 1 3.8604 3.8604v13.496a3.8604 3.8604 0 0 1 -3.8604 3.8604 3.8604 3.8604 0 0 1 -3.8604 -3.8604v-13.496a3.8604 3.8604 0 0 1 3.8604 -3.8604"/>
  <path d="m457.02 927.13c0-12.35 7.1479-13.89 16.223-13.89h85.089v23.792h-101.31z" fill="#fff" stroke="#000"/>
  <path d="m377.67 917.51a2.2513 2.2513 0 0 1 2.2513 2.2513v7.8704a2.2513 2.2513 0 0 1 -2.2513 2.2513 2.2513 2.2513 0 0 1 -2.2513 -2.2513v-7.8704a2.2513 2.2513 0 0 1 2.2513 -2.2513"/>
  <path d="m382.61 918.79a1.7842 1.7842 0 0 1 1.7842 1.7842v6.2372a1.7842 1.7842 0 0 1 -1.7842 1.7842 1.7842 1.7842 0 0 1 -1.7842 -1.7842v-6.2372a1.7842 1.7842 0 0 1 1.7842 -1.7842"/>
  <path d="m123.42 921.97h478.43v67.182h-511.23l7.1973-10.376 16.61-52.269c0-3.7414 6.9582-4.5376 8.9959-4.5376z" fill="#fff" stroke="#000"/>
  <path d="m64.984 1004.6h8.9286v8.2143h-8.9286z" fill="#fff" stroke="#000"/>
  <path d="m109.45 923.71h136.61v47.521h-121.24c-34.992 0-35.22 44.086-55.284 44.086v-68.025c0-9.7515 4.4588-23.582 39.916-23.582z" stroke="#fff"/>
  <path d="m626.9 969.16v15.106l-40.393 13.884v-28.99z" fill="#fff" stroke="#000"/>
  <path d="m440.66 969.64h129.8v25.947l-113.89 7.0711c-11.772 0.379-12.607-8.1541-15.91-20.479z" fill="#fff" stroke="#000"/>
  <path d="m541.54 913.07v10.859c7.4349 11.248 12.936 40.095 14.647 54.927h7.8287v-65.786z" fill="#fff" stroke="#000"/>
  <path d="m560.36 920.12h67.102v59.108h-67.102z" fill="#fff" stroke="#000"/>
  <path d="m583.47 933.62h37.143v22.322h-37.143z"/>
  <path transform="matrix(.9049 0 0 .9049 -4.7364 741.75)" d="m151.07 317.72a14.821 14.821 0 1 1 -29.643 0 14.821 14.821 0 1 1 29.643 0z" fill="#fff" stroke="#000" stroke-width="1.1051"/>
  <path transform="matrix(.77479 0 0 .77479 12.99 783.08)" d="m151.07 317.72a14.821 14.821 0 1 1 -29.643 0 14.821 14.821 0 1 1 29.643 0z" fill="#fff" stroke="#000" stroke-width="1.2907"/>
  <path transform="matrix(.33329 0 0 .33329 73.145 923.35)" d="m151.07 317.72a14.821 14.821 0 1 1 -29.643 0 14.821 14.821 0 1 1 29.643 0z" stroke="#000" stroke-width="3.0004"/>
  <path d="m150.23 994.5h3.3804v10.222h-3.3804z" fill="#fff" stroke="#000"/>
  <path d="m540.29 911.77h92.384l10.305 4.6349c-13.418 0-17.301 5.2839-23.214 14.075h-66.974c-4.7569-9.1879-8.6819-14.216-12.5-18.71z" stroke="#000"/>
  <path d="m0 1042.9h697.33v9.1898h-697.33z" fill="#fff"/>
  <path transform="matrix(-.25882,.96593,-.96593,-.25882,0,0)" d="m872.57-689.91h1.5152v54.043h-1.5152z" fill="#fff" stroke="#000"/>
  <path transform="matrix(-.70711,.70711,-.70711,-.70711,0,0)" d="m424.12-1037.8h1.5152v54.043h-1.5152z" fill="#fff" stroke="#000"/>
  <path transform="matrix(-.96593,.25882,-.25882,-.96593,0,0)" d="m-138.18-1114.8h1.5152v54.043h-1.5152z" fill="#fff" stroke="#000"/>
  <path transform="matrix(-.96593,-.25882,.25882,-.96593,0,0)" d="m-663.65-900.35h1.5152v54.043h-1.5152z" fill="#fff" stroke="#000"/>
  <path transform="matrix(-.70711,-.70711,.70711,-.70711,0,0)" d="m-1011.5-451.9h1.5152v54.043h-1.5152z" fill="#fff" stroke="#000"/>
  <path transform="matrix(-.25882,-.96593,.96593,-.25882,0,0)" d="m-1088.5 110.4h1.5152v54.043h-1.5152z" fill="#fff" stroke="#000"/>
  <path transform="matrix(.37273 0 0 .37273 363.49 896.71)" d="m151.07 317.72a14.821 14.821 0 1 1 -29.643 0 14.821 14.821 0 1 1 29.643 0z" stroke="#fff" stroke-width="2.6829"/>
  <path transform="matrix(-.25882,.96593,-.96593,-.25882,0,0)" d="m888.56-630.23h1.5152v54.043h-1.5152z" fill="#fff" stroke="#000"/>
  <path transform="matrix(-.70711,.70711,-.70711,-.70711,0,0)" d="m467.81-994.08h1.5152v54.043h-1.5152z" fill="#fff" stroke="#000"/>
  <path transform="matrix(-.96593,.25882,-.25882,-.96593,0,0)" d="m-78.495-1098.8h1.5152v54.043h-1.5152z" fill="#fff" stroke="#000"/>
  <path transform="matrix(-.96593,-.25882,.25882,-.96593,0,0)" d="m-603.97-916.34h1.5152v54.043h-1.5152z" fill="#fff" stroke="#000"/>
  <path transform="matrix(-.70711,-.70711,.70711,-.70711,0,0)" d="m-967.81-495.59h1.5152v54.043h-1.5152z" fill="#fff" stroke="#000"/>
  <path transform="matrix(-.25882,-.96593,.96593,-.25882,0,0)" d="m-1072.5 50.716h1.5152v54.043h-1.5152z" fill="#fff" stroke="#000"/>
  <path transform="matrix(.37273 0 0 .37273 301.7 896.71)" d="m151.07 317.72a14.821 14.821 0 1 1 -29.643 0 14.821 14.821 0 1 1 29.643 0z" stroke="#fff" stroke-width="2.6829"/>
  <path d="m232.27 962.86h109.85l18.98 20.969c0.56961 0.6313 1.3712 0.99933 2.178 1h165.42l25.741 8.4018c0.46076 0.29918 0.99303 0.46252 1.5275 0.46875h6.9107m-330.6-37.558h111.12c0.78506 5.7e-4 1.5652 0.35679 2.1215 0.96875l19.008 21h164.97c0.52276-1e-3 1.0452 0.15114 1.4992 0.4375l25.797 8.433h6.0904m0 3.3101h-6.9082l-26.492-8.8622h-166.18l-19.887-21.971h-111.13" fill="none" stroke="#000"/>
  <path d="m414.29 987.62c-15.192 0-27.531 12.308-27.531 27.5s12.339 27.531 27.531 27.531 27.5-12.339 27.5-27.531-12.308-27.5-27.5-27.5zm0 2.375c13.885 0 25.125 11.24 25.125 25.125s-11.24 25.156-25.125 25.156-25.156-11.272-25.156-25.156 11.272-25.125 25.156-25.125z" fill="#fff" stroke="#000"/>
  <path d="m352.5 987.62c-15.192 0-27.531 12.308-27.531 27.5s12.339 27.531 27.531 27.531 27.5-12.339 27.5-27.531-12.308-27.5-27.5-27.5zm0 2.375c13.885 0 25.125 11.24 25.125 25.125s-11.24 25.156-25.125 25.156-25.156-11.272-25.156-25.156 11.272-25.125 25.156-25.125z" fill="#fff" stroke="#000"/>
  <path transform="matrix(-.25882,.96593,-.96593,-.25882,0,0)" d="m904.55-570.55h1.5152v54.043h-1.5152z" fill="#fff" stroke="#000"/>
  <path transform="matrix(-.70711,.70711,-.70711,-.70711,0,0)" d="m511.5-950.39h1.5152v54.043h-1.5152z" fill="#fff" stroke="#000"/>
  <path transform="matrix(-.96593,.25882,-.25882,-.96593,0,0)" d="m-18.812-1082.8h1.5152v54.043h-1.5152z" fill="#fff" stroke="#000"/>
  <path transform="matrix(-.96593,-.25882,.25882,-.96593,0,0)" d="m-544.29-932.33h1.5152v54.043h-1.5152z" fill="#fff" stroke="#000"/>
  <path transform="matrix(-.70711,-.70711,.70711,-.70711,0,0)" d="m-924.12-539.28h1.5152v54.043h-1.5152z" fill="#fff" stroke="#000"/>
  <path transform="matrix(-.25882,-.96593,.96593,-.25882,0,0)" d="m-1056.5-8.9668h1.5152v54.043h-1.5152z" fill="#fff" stroke="#000"/>
  <path transform="matrix(.37273 0 0 .37273 239.91 896.71)" d="m151.07 317.72a14.821 14.821 0 1 1 -29.643 0 14.821 14.821 0 1 1 29.643 0z" stroke="#fff" stroke-width="2.6829"/>
  <path d="m290.71 987.62c-15.192 0-27.531 12.308-27.531 27.5s12.339 27.531 27.531 27.531 27.5-12.339 27.5-27.531-12.308-27.5-27.5-27.5zm0 2.375c13.885 0 25.125 11.24 25.125 25.125s-11.24 25.156-25.125 25.156-25.156-11.272-25.156-25.156 11.272-25.125 25.156-25.125z" fill="#fff" stroke="#000"/>
  <path d="m144.45 912.39h30c7.2984 0.84025 12.285 2.3741 14.821 4.6429v20.357h-48.214v-21.786c0-1.6558 2.6012-3.2143 3.3929-3.2143z"/>
  <path transform="matrix(-.25882,.96593,-.96593,-.25882,0,0)" d="m920.54-510.87h1.5152v54.043h-1.5152z" fill="#fff" stroke="#000"/>
  <path transform="matrix(-.70711,.70711,-.70711,-.70711,0,0)" d="m555.19-906.7h1.5152v54.043h-1.5152z" fill="#fff" stroke="#000"/>
  <path transform="matrix(-.96593,.25882,-.25882,-.96593,0,0)" d="m40.87-1066.8h1.5152v54.043h-1.5152z" fill="#fff" stroke="#000"/>
  <path transform="matrix(-.96593,-.25882,.25882,-.96593,0,0)" d="m-484.6-948.32h1.5152v54.043h-1.5152z" fill="#fff" stroke="#000"/>
  <path transform="matrix(-.70711,-.70711,.70711,-.70711,0,0)" d="m-880.43-582.97h1.5152v54.043h-1.5152z" fill="#fff" stroke="#000"/>
  <path transform="matrix(-.25882,-.96593,.96593,-.25882,0,0)" d="m-1040.6-68.649h1.5152v54.043h-1.5152z" fill="#fff" stroke="#000"/>
  <path transform="matrix(.37273 0 0 .37273 178.12 896.71)" d="m151.07 317.72a14.821 14.821 0 1 1 -29.643 0 14.821 14.821 0 1 1 29.643 0z" stroke="#fff" stroke-width="2.6829"/>
  <path d="m228.93 987.62c-15.192 0-27.531 12.308-27.531 27.5s12.339 27.531 27.531 27.531 27.5-12.339 27.5-27.531-12.308-27.5-27.5-27.5zm0 2.375c13.885 0 25.125 11.24 25.125 25.125s-11.24 25.156-25.125 25.156-25.156-11.272-25.156-25.156 11.272-25.125 25.156-25.125z" fill="#fff" stroke="#000"/>
  <path d="m245.46 967.61v2.8438h321.5v-2.8438h-321.5z"/>
  <path d="m545.22 977.73v2.8438h82.925v-2.8438h-82.925z"/>
  <path d="m368.01 976.27h2.5254v10.733h-2.5254z"/>
  <path d="m406.6 976.27h2.5254v10.733h-2.5254z"/>
  <path d="m445.19 976.27h2.5254v10.733h-2.5254z"/>
  <path d="m483.78 976.27h2.5254v10.733h-2.5254z"/>
  <path d="m522.37 976.27h2.5254v10.733h-2.5254z"/>
  <path d="m560.88 984.6h2.5254v10.733h-2.5254z"/>
  <path d="m256.77 954.05h2.5254v10.733h-2.5254z"/>
  <path d="m295.36 954.05h2.5254v10.733h-2.5254z"/>
  <path d="m333.95 954.05h2.5254v10.733h-2.5254z"/>
  <path transform="matrix(.95533 0 0 .95533 359.75 724.96)" d="m151.07 317.72a14.821 14.821 0 1 1 -29.643 0 14.821 14.821 0 1 1 29.643 0z" fill="#fff" stroke="#000" stroke-width="1.0468"/>
  <path transform="matrix(.4846 0 0 .4846 423.88 874.52)" d="m151.07 317.72a14.821 14.821 0 1 1 -29.643 0 14.821 14.821 0 1 1 29.643 0z" stroke="#000" stroke-width="2.0636"/>
  <path transform="matrix(-.95533 0 0 .95533 679.5 724.96)" d="m151.07 317.72a14.821 14.821 0 1 1 -29.643 0 14.821 14.821 0 1 1 29.643 0z" fill="#fff" stroke="#000" stroke-width="1.0468"/>
  <path transform="matrix(-.4846 0 0 .4846 615.36 874.52)" d="m151.07 317.72a14.821 14.821 0 1 1 -29.643 0 14.821 14.821 0 1 1 29.643 0z" stroke="#000" stroke-width="2.0636"/>
  <path d="m510.9 1021.5v11.031l-5.329 4.0938v-10.791h-31.586v10.744l-6.8423-0.1336v-3.9134h-10.774v-9.4062c7.8747-1.3739 16.484-6.1874 23.406-13.75h23.062l8.0625 3.9062h17.433l8.0625-3.9062h23.062c6.9226 7.5626 15.532 12.376 23.406 13.75v9.4062h-10.774v3.9134l-6.8423 0.1336v-10.744h-31.586v10.791l-5.329-4.0938v-11.031z" stroke="#fff"/>
  <path transform="matrix(.9049 0 0 .9049 56.335 741.75)" d="m151.07 317.72a14.821 14.821 0 1 1 -29.643 0 14.821 14.821 0 1 1 29.643 0z" fill="#fff" stroke="#000" stroke-width="1.1051"/>
  <path transform="matrix(.77479 0 0 .77479 74.062 783.08)" d="m151.07 317.72a14.821 14.821 0 1 1 -29.643 0 14.821 14.821 0 1 1 29.643 0z" fill="#fff" stroke="#000" stroke-width="1.2907"/>
  <path transform="matrix(.33329 0 0 .33329 134.22 923.35)" d="m151.07 317.72a14.821 14.821 0 1 1 -29.643 0 14.821 14.821 0 1 1 29.643 0z" stroke="#000" stroke-width="3.0004"/>
  <path d="m0 1042.9h697.33v3.6339h-697.33z"/>
  <path d="m598.49334,908.33582a.97668,.97668 0 0,1 .97668.97668v7.70537a.97668,.97668 0 0,1 -.97668.97668 .97668,.97668 0 0,1 -.97668-.97668v-7.70537a.97668,.97668 0 0,1 .97668-.97668"/>
  <path d="m0 1051.8h697.33v0.51958h-697.33z"/>
  <path d="m552.13 935.16 6.7877-1.5386v14.966l-6.7877-0.73406z"/>
  <path transform="scale(-1,1)" d="m-273.01 921.75h0.7045v47.509h-0.7045z"/>
  <path transform="scale(-1,1)" d="m-320.86 921.75h0.7045v47.509h-0.7045z"/>
  <path transform="scale(-1,1)" d="m-368.71 921.75h0.7045v47.509h-0.7045z"/>
  <path transform="scale(-1,1)" d="m-225.16 921.75h0.7045v47.509h-0.7045z"/>
  <path transform="scale(-1,1)" d="m-129.46 921.75h0.7045v47.509h-0.7045z"/>
  <path transform="scale(-1,1)" d="m-177.31 921.75h0.7045v47.509h-0.7045z"/>
  <path transform="matrix(1.2857 0 0 1.2857 -191.92 216.27)" d="m428.33 634.68a4.6246 4.6246 0 1 1 -9.2492 0 4.6246 4.6246 0 1 1 9.2492 0z" fill="#f9f9f9" stroke="#000" stroke-width=".77778"/>
  <path transform="translate(-18.898 397.6)" d="m428.33 634.68a4.6246 4.6246 0 1 1 -9.2492 0 4.6246 4.6246 0 1 1 9.2492 0z" fill="#fff" stroke="#000"/>
  <path transform="rotate(90)" d="m1019.7-280.05h7.4544a1.9194 1.9194 0 0 1 1.9194 1.9194 1.9194 1.9194 0 0 1 -1.9194 1.9194h-7.4544a1.9194 1.9194 0 0 1 -1.9194 -1.9194 1.9194 1.9194 0 0 1 1.9194 -1.9194" fill="#fff" stroke="#000"/>
  <path transform="matrix(1.6667 0 0 1.6667 -428.04 -25.517)" d="m428.33 634.68a4.6246 4.6246 0 1 1 -9.2492 0 4.6246 4.6246 0 1 1 9.2492 0z" fill="#f9f9f9" stroke="#000" stroke-width=".6"/>
  <path transform="translate(-199.52 397.6)" d="m428.33 634.68a4.6246 4.6246 0 1 1 -9.2492 0 4.6246 4.6246 0 1 1 9.2492 0z" fill="#f9f9f9" stroke="#000"/>
  <path d="m225.58 1028.9h183.75a3.4624 3.4624 0 0 1 3.4624 3.4624 3.4624 3.4624 0 0 1 -3.4624 3.4624h-183.75a3.4624 3.4624 0 0 1 -3.4624 -3.4624 3.4624 3.4624 0 0 1 3.4624 -3.4624" stroke="#fff"/>
  <path transform="matrix(.68254 0 0 .68254 115.61 599.09)" d="m428.33 634.68a4.6246 4.6246 0 1 1 -9.2492 0 4.6246 4.6246 0 1 1 9.2492 0z" fill="#fff" stroke="#000" stroke-width="1.4651"/>
  <path transform="matrix(.87755 0 0 .87755 -18.976 475.32)" d="m428.33 634.68a4.6246 4.6246 0 1 1 -9.2492 0 4.6246 4.6246 0 1 1 9.2492 0z" fill="#fff" stroke="#000" stroke-width="1.1395"/>
  <path transform="matrix(.68254 0 0 .68254 -65.007 599.09)" d="m428.33 634.68a4.6246 4.6246 0 1 1 -9.2492 0 4.6246 4.6246 0 1 1 9.2492 0z" fill="#fff" stroke="#000" stroke-width="1.4651"/>
  <path transform="matrix(-.99943,-.0339,.0339,-.99943,0,0)" d="m-312.24944-1009.0912h114.68134a.93058,.93058 0 0,1 .93058.93058 .93058,.93058 0 0,1 -.93058.93058h-114.68134a.93058,.93058 0 0,1 -.93058-.93058 .93058,.93058 0 0,1 .93058-.93058" fill="#fff" stroke="#000" stroke-width="1.1362"/>
  <path transform="rotate(8.6523)" d="m317.49 975.1h113.19a3.4624 3.4624 0 0 1 3.4624 3.4624 3.4624 3.4624 0 0 1 -3.4624 3.4624h-113.19a3.4624 3.4624 0 0 1 -3.4624 -3.4624 3.4624 3.4624 0 0 1 3.4624 -3.4624" stroke="#fff"/>
  <path d="m275.88 1027.7h4.504a3.4624 3.4624 0 0 1 3.4624 3.4624v2.2504a3.4624 3.4624 0 0 1 -3.4624 3.4624h-4.504a3.4624 3.4624 0 0 1 -3.4624 -3.4624v-2.2504a3.4624 3.4624 0 0 1 3.4624 -3.4624" fill="#fff" stroke="#000"/>
  <path transform="matrix(.56766 0 0 .56766 37.616 672)" d="m428.33 634.68a4.6246 4.6246 0 1 1 -9.2492 0 4.6246 4.6246 0 1 1 9.2492 0z" fill="#fff" stroke="#000" stroke-width="1.7616"/>
  <path d="m146.73351,1013.8068h23.84211a.93058,.93058 0 0,1 .93058.93058 .93058,.93058 0 0,1 -.93058.93058h-23.84211a.93058,.93058 0 0,1 -.93058-.93058 .93058,.93058 0 0,1 .93058-.93058" fill="#fff"/>
  <path d="m150.23 1009.6h3.3804v10.222h-3.3804z" fill="#fff" stroke="#000"/>
  <path d="m123.47 986.98h31.441c-5.9072 13.3-5.195 26.601 0 39.901h-30.431c-3.6214 0-4.9245-4.4617-4.9245-7.5761v-28.158c-0.13987-2.1707 0.9935-4.1669 3.9143-4.1669z" fill="#fff" stroke="#000"/>
  <path transform="matrix(.56766 0 0 .56766 37.616 658.02)" d="m428.33 634.68a4.6246 4.6246 0 1 1 -9.2492 0 4.6246 4.6246 0 1 1 9.2492 0z" fill="#fff" stroke="#000" stroke-width="1.7616"/>
  <path d="m180.62 991.36 27.445 5.151h54.194v7.7266h-81.64z" stroke="#fff"/>
  <path d="m279.45 991.35 36.508 17.83-2.5764-7.0737-5.3362-6.6023-6.6578-4.3627c-0.35715 0.0331-6.426-1.9655-6.6149-1.9946l-0.4773-0.0734-7.1716 0.037z" fill="#fff"/>
  <path d="m345.77 989.66 30.874 15.979-1.2887-3.8542-5.3362-6.6024-6.6578-4.3627c-0.35715 0.0331-6.426-1.9655-6.6149-1.9946l-0.4773-0.0734-7.1716 0.037z" fill="#fff"/>
  <path d="m437.17 1002-5.3362-6.6023-6.6578-4.3627c-0.35715 0.0331-6.426-1.9655-6.6149-1.9946l-0.4773-0.0734-7.1716 0.037z" fill="#fff"/>
  <path d="m165.59 1010.6h4.504a3.4624 3.4624 0 0 1 3.4624 3.4624v2.2504a3.4624 3.4624 0 0 1 -3.4624 3.4624h-4.504a3.4624 3.4624 0 0 1 -3.4624 -3.4624v-2.2504a3.4624 3.4624 0 0 1 3.4624 -3.4624" fill="#fff" stroke="#000"/>
  <path transform="matrix(.56766 0 0 .56766 -72.678 654.93)" d="m428.33 634.68a4.6246 4.6246 0 1 1 -9.2492 0 4.6246 4.6246 0 1 1 9.2492 0z" fill="#fff" stroke="#000" stroke-width="1.7616"/>
  <path transform="scale(-1,1)" d="m-416.56 921.75h0.7045v47.509h-0.7045z"/>
  <path transform="scale(-1,1)" d="m-464.4 921.75h0.7045v47.509h-0.7045z"/>
  <path transform="scale(-1,1)" d="m-512.25 921.75h0.7045v47.509h-0.7045z"/>
 </g>
</svg>
